leg6dof9musc_added_mass_states
version=1
nRows=12
nColumns=33
inDegrees=yes

# SIMM Motion File Header:
name leg6dof9musc_added_mass_states
datacolumns 33
datarows 12
otherdata 1
range 0.83000000 0.84003359
endheader
time	pelvis_tilt	pelvis_tx	pelvis_ty	hip_flexion_r	knee_angle_r	knee_angle_pat_r	ankle_angle_r	pelvis_tilt_u	pelvis_tx_u	pelvis_ty_u	hip_flexion_r_u	knee_angle_r_u	knee_angle_pat_r_u	ankle_angle_r_u	bifemlh_r.activation	bifemlh_r.fiber_length	bifemsh_r.activation	bifemsh_r.fiber_length	glut_max2_r.activation	glut_max2_r.fiber_length	psoas_r.activation	psoas_r.fiber_length	rect_fem_r.activation	rect_fem_r.fiber_length	vas_int_r.activation	vas_int_r.fiber_length	med_gas_r.activation	med_gas_r.fiber_length	soleus_r.activation	soleus_r.fiber_length	tib_ant_r.activation	tib_ant_r.fiber_length
      0.83000000	      1.54999773	      0.03768869	      1.06430996	     17.99233897	    -25.22302822	    -25.22302399	      9.96351784	      2.12671693	     -0.01300323	      0.20366426	    -88.55441300	     39.59375751	     39.59375751	     35.43198419	      0.11657159	      0.11027407	      0.02000000	      0.18584405	      0.13673168	      0.10676942	      0.02000000	      0.09493055	      0.02000000	      0.12356994	      0.27803776	      0.09858371	      0.02000000	      0.10308899	      0.02094473	      0.09791422	      0.02486032	      0.08246034
      0.83004490	      1.55009479	      0.03768810	      1.06431911	     17.98836127	    -25.22124976	    -25.22124552	      9.96510804	      2.19721939	     -0.01305651	      0.20377544	    -88.64248579	     39.63251756	     39.63251756	     35.40811502	      0.11708515	      0.11027203	      0.02000000	      0.18584501	      0.13701519	      0.10676563	      0.02000000	      0.09493357	      0.02000000	      0.12357185	      0.27804924	      0.09858236	      0.02000000	      0.10309115	      0.02108360	      0.09791556	      0.02485596	      0.08245888
      0.83008979	      1.55019502	      0.03768752	      1.06432826	     17.98437961	    -25.21946955	    -25.21946532	      9.96669724	      2.26776689	     -0.01310976	      0.20388658	    -88.73058481	     39.67111857	     39.67111857	     35.38711637	      0.11771050	      0.11026993	      0.02000000	      0.18584596	      0.13735599	      0.10676181	      0.02000000	      0.09493659	      0.02000000	      0.12357375	      0.27806895	      0.09858099	      0.02000000	      0.10309330	      0.02124974	      0.09791684	      0.02485052	      0.08245742
      0.83031427	      1.55074377	      0.03768454	      1.06437409	     17.96441191	    -25.21054271	    -25.21053848	      9.97463235	      2.62177133	     -0.01337572	      0.20444235	    -89.17221177	     39.86210147	     39.86210147	     35.32110232	      0.12079548	      0.11025877	      0.02000000	      0.18585075	      0.13903719	      0.10674230	      0.02000000	      0.09495171	      0.02000000	      0.12358325	      0.27816619	      0.09857414	      0.02000000	      0.10310406	      0.02206939	      0.09792252	      0.02482337	      0.08245015
      0.83122479	      1.55380121	      0.03767187	      1.06456127	     17.88238551	    -25.17390132	    -25.17389708	     10.00684014	      4.11424977	     -0.01445299	      0.20674499	    -91.02609115	     40.62087622	     40.62087622	     35.52881071	      0.13262208	      0.11020251	      0.02000000	      0.18587039	      0.14548225	      0.10665716	      0.02000000	      0.09501335	      0.02000000	      0.12362168	      0.27853898	      0.09854564	      0.02000000	      0.10314755	      0.02521159	      0.09793725	      0.02471482	      0.08242123
      0.83233620	      1.55949108	      0.03765508	      1.06479273	     17.77983869	    -25.12823254	    -25.12822831	     10.04671484	      6.18261144	     -0.01577720	      0.20982273	    -93.57668778	     41.57067196	     41.57067196	     36.26228720	      0.14567218	      0.11011320	      0.02000000	      0.18589483	      0.15259408	      0.10654332	      0.02000000	      0.09508968	      0.02000000	      0.12366851	      0.27895033	      0.09850943	      0.02000000	      0.10320050	      0.02867886	      0.09794567	      0.02458562	      0.08238697
      0.83373811	      1.57032144	      0.03763177	      1.06508999	     17.64600152	    -25.06904479	    -25.06904055	     10.09819073	      9.39696545	     -0.01748375	      0.21440540	    -97.51172489	     42.89815421	     42.89815421	     37.12385131	      0.16019382	      0.10997504	      0.02000000	      0.18592647	      0.16050785	      0.10638971	      0.02000000	      0.09518852	      0.02000000	      0.12372791	      0.27940807	      0.09846178	      0.02000000	      0.10326751	      0.03253710	      0.09794943	      0.02442769	      0.08234508
      0.83514002	      1.58623696	      0.03760603	      1.06539435	     17.50595815	    -25.00785639	    -25.00785215	     10.15062039	     13.45925096	     -0.01924789	      0.21998599	   -102.45732505	     44.43215216	     44.43215216	     37.59800559	      0.17281592	      0.10981551	      0.02000000	      0.18595908	      0.16738643	      0.10622911	      0.02000000	      0.09529119	      0.02000000	      0.12378834	      0.27980593	      0.09841210	      0.02000000	      0.10333517	      0.03589065	      0.09794945	      0.02427519	      0.08230429
      0.83712713	      1.61997116	      0.03756520	      1.06584085	     17.29388691	    -24.91708269	    -24.91707846	     10.22514792	     20.80448778	     -0.02186616	      0.22977307	   -111.36033105	     47.01126989	     47.01126989	     37.10847087	      0.18793058	      0.10956390	      0.02000000	      0.18600725	      0.17562337	      0.10599329	      0.02000000	      0.09544556	      0.02000000	      0.12387730	      0.28028236	      0.09833832	      0.02000000	      0.10343261	      0.03990645	      0.09794548	      0.02406800	      0.08224788
      0.83886669	      1.66285243	      0.03752508	      1.06624930	     17.09208303	    -24.83305343	    -24.83304919	     10.28800622	     28.71581553	     -0.02427864	      0.24008822	   -120.91580525	     49.65359035	     49.65359035	     34.87450427	      0.19890872	      0.10932687	      0.02000000	      0.18605164	      0.18160606	      0.10577932	      0.02000000	      0.09559185	      0.02000000	      0.12396024	      0.28062841	      0.09827037	      0.02000000	      0.10351916	      0.04282323	      0.09794138	      0.02389488	      0.08219970
      0.84000000	      1.69865124	      0.03749665	      1.06652559	     16.95112487	    -24.77572393	    -24.77571969	     10.32631464	     34.54268952	     -0.02590995	      0.24759070	   -127.93742490	     51.53704102	     51.53704102	     32.65647761	      0.20509938	      0.10916643	      0.02000000	      0.18608184	      0.18497974	      0.10563535	      0.02000000	      0.09569402	      0.02000000	      0.12401785	      0.28082354	      0.09822429	      0.02000000	      0.10357575	      0.04446802	      0.09793923	      0.02378607	      0.08216904
      0.84003359	      1.69981451	      0.03749578	      1.06653391	     16.94682400	    -24.77399191	    -24.77398767	     10.32741032	     34.72256867	     -0.02595898	      0.24782128	   -128.15400721	     51.59444998	     51.59444998	     32.58449980	      0.20499875	      0.10916161	      0.02000000	      0.18608275	      0.18491774	      0.10563102	      0.02007433	      0.09569711	      0.02053709	      0.12401951	      0.28073489	      0.09822290	      0.02000000	      0.10357743	      0.04448760	      0.09793918	      0.02378290	      0.08216814
